<svg width="403" height="342" viewBox="0 0 403 342" fill="none" xmlns="http://www.w3.org/2000/svg">
<path d="M13.5601 296.56C12.5663 296.555 11.5763 296.436 10.6096 296.206C9.06645 295.826 7.62388 295.116 6.38112 294.126C5.13837 293.136 4.12492 291.888 3.41046 290.469C-7.88988 270.412 11.0227 177.665 29.0059 122.627C50.3821 57.2367 71.9944 21.3117 95.0671 12.7729C104.494 9.27775 114.245 10.3691 123.48 15.9436C132.066 21.1643 140.313 33.095 148.559 49.4058C151.346 48.208 154.285 47.3992 157.293 47.0019C169.095 45.5272 180.07 51.1017 189.837 63.6519C195.634 71.0994 202.155 81.4669 209.015 92.439C219.902 109.738 238.106 138.673 247.032 140.236C262.433 142.949 298.326 111.375 319.731 87.3217C321.244 85.0545 322.925 82.905 324.762 80.8917C332.138 72.9723 339.603 73.5917 343.38 74.6535C370.671 82.3812 392.357 171.56 402.861 224.016C403.233 225.874 402.851 227.804 401.8 229.38C400.748 230.957 399.114 232.051 397.255 232.423C395.397 232.794 393.467 232.412 391.89 231.361C390.313 230.311 389.218 228.676 388.846 226.819C373.401 149.188 353.042 92.2768 339.588 88.4277C339.057 88.2802 337.847 87.9411 335.31 90.6546C334.476 91.5643 333.693 92.5195 332.964 93.5156C332.659 94.2069 332.251 94.8482 331.755 95.418L331.15 96.0965C323.021 108.47 313.89 131.491 305.023 153.789C285.993 201.674 266.372 251.122 239.641 251.122C237.649 251.122 235.665 250.864 233.74 250.356C211.877 244.604 194.115 201.895 167.472 132.243C159.461 111.316 150.949 89.0619 142.599 70.421C117.52 93.8253 90.3021 156.679 69.4275 204.963C42.5781 267.138 29.1534 296.56 13.5601 296.56ZM106.058 25.0134C103.988 25.0274 101.939 25.4172 100.009 26.1637C87.3221 30.8534 67.0523 52.1783 42.5781 127.066C32.172 159.472 24.1742 192.601 18.6497 226.184C13.3241 259.293 13.8847 275.117 15.0501 280.971C24.5211 272.86 42.7699 230.653 56.3568 199.211C85.0207 132.936 110.07 78.7976 136.374 57.045C129.204 42.6514 122.285 31.9742 116.03 28.1398C113.06 26.1948 109.607 25.1125 106.058 25.0134ZM154.741 62.2804C163.164 80.8033 171.735 103.205 180.867 127.066C198.791 173.89 221.082 232.157 237.443 236.463C254.909 241.094 277.097 185.363 291.746 148.494C294.697 140.885 297.647 133.54 300.524 126.624C282.526 142.33 260.692 157.136 244.627 154.305C230.538 151.813 216.597 131.21 197.006 100.049C190.294 89.3863 183.95 79.3137 178.595 72.4266C168.873 59.9355 161.527 60.8646 159.122 61.1743C157.62 61.379 156.149 61.7653 154.741 62.3246V62.2804Z" fill="#89B9E4"/>
<path d="M335.576 64.1223C329.231 64.1252 323.029 62.2469 317.752 58.7251C312.476 55.2033 308.363 50.1962 305.933 44.3372C303.504 38.4782 302.868 32.0305 304.105 25.8099C305.342 19.5893 308.397 13.8752 312.883 9.3905C317.369 4.90578 323.085 1.85196 329.308 0.615341C335.53 -0.621274 341.98 0.0148862 347.841 2.44334C353.702 4.8718 358.711 8.98345 362.234 14.2581C365.757 19.5328 367.636 25.7335 367.633 32.0759C367.621 40.5715 364.24 48.7158 358.231 54.7232C352.221 60.7305 344.074 64.1105 335.576 64.1223ZM335.576 14.3051C332.054 14.2905 328.607 15.3222 325.672 17.2693C322.737 19.2163 320.447 21.991 319.093 25.2412C317.738 28.4913 317.38 32.0705 318.063 35.5246C318.747 38.9786 320.442 42.1518 322.932 44.6416C325.423 47.1313 328.597 48.8253 332.052 49.5086C335.507 50.192 339.088 49.8338 342.339 48.4797C345.59 47.1255 348.366 44.8364 350.313 41.9027C352.261 38.969 353.293 35.5231 353.279 32.0021C353.255 27.3158 351.383 22.828 348.068 19.5141C344.753 16.2003 340.264 14.3284 335.576 14.3051Z" fill="#89B9E4"/>
<path d="M104.442 286.554C106.17 283.513 108.696 280.994 111.752 279.263C114.807 277.533 118.278 276.656 121.795 276.726C129.947 276.726 136.355 280.655 139.963 287.937C144.25 280.655 151.723 276.726 160.11 276.726C175.485 276.726 182.258 289.092 182.258 303.316V340.074H163.261V305.628C163.261 299.728 160.932 293.715 154.066 293.715C152.197 293.716 150.368 294.251 148.798 295.257C147.228 296.264 145.984 297.698 145.214 299.388C144.249 301.246 143.758 303.311 143.785 305.401V340.074H124.831V305.628C124.831 299.728 122.502 293.715 115.63 293.715C113.761 293.716 111.932 294.251 110.362 295.257C108.792 296.264 107.547 297.698 106.778 299.388C105.816 301.247 105.325 303.311 105.349 305.401V340.074H85.6877V334.777L85.6377 278.464H95.7183C97.9322 278.472 100.061 279.311 101.679 280.811C103.296 282.311 104.283 284.362 104.442 286.554Z" fill="#89B9E4"/>
<path d="M184.349 262.289C184.312 260.461 184.795 258.66 185.742 257.092C187.492 253.852 191.222 252.001 194.829 252.001C196.69 251.976 198.524 252.433 200.153 253.326C201.781 254.218 203.147 255.516 204.117 257.092C204.957 258.699 205.396 260.483 205.396 262.293C205.396 264.103 204.957 265.887 204.117 267.494C203.146 269.068 201.78 270.365 200.151 271.256C198.523 272.148 196.689 272.603 194.829 272.578C191.257 272.578 187.492 270.727 185.742 267.494C184.795 265.923 184.312 264.12 184.349 262.289ZM185.392 278.477H204.381V340.081H185.392V278.477Z" fill="#89B9E4"/>
<path d="M230.238 302.706C234.667 302.639 239.063 303.464 243.162 305.131V302.011C243.162 296.006 239.669 292.085 233.496 292.085C229.424 292.085 225.458 293.935 223.83 297.863L206.826 294.978C209.391 283.072 222.315 276.712 233.846 276.712C249.456 276.712 261.566 286.54 261.566 302.947V340.046H244.562L244.098 332.771C240.604 339.01 233.146 341.783 226.28 341.783C214.978 341.783 204.611 334.735 204.611 322.595C204.611 308.726 217.778 302.742 230.238 302.742M231.517 327.828C237.804 327.828 243.162 323.78 243.162 317.192V316.611C240.205 315.267 236.983 314.596 233.732 314.647C229.445 314.647 223.251 316.065 223.251 321.468C223.251 325.857 227.673 327.85 231.517 327.85" fill="#89B9E4"/>
<path d="M287.422 302.706C291.854 302.639 296.253 303.464 300.353 305.131V302.011C300.353 296.006 296.86 292.085 290.687 292.085C286.608 292.085 282.65 293.935 281.021 297.863L264.017 294.978C266.575 283.072 279.506 276.712 291.037 276.712C306.641 276.712 318.757 286.54 318.757 302.947V340.046H301.754L301.282 332.771C297.789 339.01 290.337 341.783 283.464 341.783C272.169 341.783 261.803 334.735 261.803 322.595C261.803 308.726 274.963 302.742 287.422 302.742M288.708 327.828C294.995 327.828 300.353 323.78 300.353 317.192V316.611C297.396 315.268 294.175 314.597 290.923 314.647C286.636 314.647 280.435 316.065 280.435 321.468C280.435 325.857 284.865 327.85 288.708 327.85" fill="#89B9E4"/>
</svg>
