<?xml version="1.0" encoding="utf-8"?>
<!-- Generator: Adobe Illustrator 24.2.3, SVG Export Plug-In . SVG Version: 6.00 Build 0)  -->
<svg version="1.1" id="Capa_1" xmlns="http://www.w3.org/2000/svg" xmlns:xlink="http://www.w3.org/1999/xlink" x="0px" y="0px"
	 viewBox="0 0 247 170.9" style="enable-background:new 0 0 247 170.9;" xml:space="preserve">
<style type="text/css">
	.st0{fill:#0B426F;}
</style>
<g>
	<path class="st0" d="M34.5,164.5c-0.5,0-1-0.1-1.5-0.2c-1-0.2-2.5-0.9-3.6-2.9c-5.7-10,3.8-56.4,12.8-83.9
		c10.7-32.7,21.5-50.7,33-54.9c4.7-1.8,9.6-1.2,14.2,1.6c4.3,2.6,8.4,8.6,12.6,16.7c1.4-0.6,2.9-1,4.4-1.2c5.9-0.8,11.4,2,16.3,8.3
		c2.9,3.7,6.2,8.9,9.6,14.4c5.4,8.6,14.6,23.1,19,23.9c7.7,1.4,25.6-14.4,36.3-26.5c0.8-1.2,1.7-2.3,2.5-3.2c3.7-4,7.4-3.7,9.3-3.1
		c13.6,3.9,24.5,48.5,29.7,74.7c0.4,1.9-0.9,3.8-2.8,4.2c-1.9,0.4-3.8-0.9-4.2-2.8c-7.8-38.8-17.9-67.3-24.7-69.2
		c-0.3-0.1-0.9-0.3-2.1,1.1c-0.4,0.4-0.8,0.9-1.2,1.4c-0.1,0.3-0.3,0.7-0.6,1c-0.1,0.1-0.2,0.2-0.3,0.3c-4.1,6.2-8.6,17.7-13.1,28.8
		c-9.5,23.9-19.3,48.6-32.7,48.6c-0.9,0-1.9-0.1-2.9-0.4c-10.9-2.9-19.8-24.2-33.1-59.1c-4-10.5-8.3-21.6-12.4-30.9
		c-12.6,11.7-26.1,43.1-36.6,67.3C49,149.7,42.3,164.5,34.5,164.5z M80.7,28.7c-1,0-2,0.2-3,0.6c-6.3,2.4-16.5,13-28.7,50.4
		c-4.9,15.1-9.4,33.6-12,49.6c-2.7,16.6-2.4,24.5-1.8,27.4c4.7-4.1,13.9-25.2,20.6-40.9c14.3-33.1,26.8-60.2,40-71.1
		c-3.6-7.2-7.1-12.6-10.2-14.5C84,29.2,82.3,28.7,80.7,28.7z M105,47.3c4.2,9.3,8.5,20.5,13.1,32.4c8.9,23.4,20.1,52.6,28.3,54.7
		c8.7,2.3,19.8-25.6,27.1-44c1.5-3.8,3-7.5,4.4-10.9c-9,7.8-19.9,15.3-27.9,13.8c-7-1.2-14-11.6-23.8-27.1
		c-3.4-5.3-6.5-10.4-9.2-13.8c-4.9-6.3-8.5-5.8-9.7-5.6C106.5,46.9,105.8,47.1,105,47.3z"/>
</g>
<g>
	<path class="st0" d="M195.4,48.2c-8.8,0-16-7.2-16-16s7.2-16,16-16s16,7.2,16,16S204.3,48.2,195.4,48.2z M195.4,23.3
		c-4.9,0-8.9,4-8.9,8.9s4,8.9,8.9,8.9s8.9-4,8.9-8.9C204.3,27.3,200.3,23.3,195.4,23.3z"/>
</g>
</svg>
